<svg width="24" height="24" viewBox="0 0 24 24" fill="none" xmlns="http://www.w3.org/2000/svg">
<g id="arrow_back_24px">
<g id="Group 6">
<g id="Icon / Light / chevron.left">
<path id="Icon" d="M13.1511 20.7704C13.3773 20.9966 13.6652 21.12 14.0045 21.12C14.6831 21.12 15.228 20.5853 15.228 19.9067C15.228 19.5674 15.0841 19.259 14.8476 19.0225L7.6503 11.9897L14.8476 4.9775C15.0841 4.74102 15.228 4.42228 15.228 4.09326C15.228 3.41466 14.6831 2.88 14.0045 2.88C13.6652 2.88 13.3773 3.00339 13.1511 3.22959L5.15181 11.0438C4.86392 11.3111 4.73025 11.6401 4.71997 12C4.71997 12.3599 4.86392 12.6683 5.15181 12.9459L13.1511 20.7704Z" fill="white"/>
</g>
</g>
</g>
</svg>
