<svg width="24" height="24" viewBox="0 0 24 24" fill="none" xmlns="http://www.w3.org/2000/svg">
<path d="M13.0025 3.63279C13.9749 3.15678 14.8233 3 16.1393 3.00002C19.5072 3.01396 22 5.8544 22 9.47262C22 12.2344 20.4602 14.9021 17.592 17.4817C16.0865 18.8357 14.1643 20.1757 12.7876 20.8886L12 21.2965L11.2124 20.8886C9.83575 20.1757 7.91354 18.8357 6.40804 17.4817C3.53985 14.9021 2 12.2344 2 9.47262C2 5.8157 4.46949 3 7.86777 3C9.13662 3 10.0285 3.17162 11.0198 3.66194C11.365 3.83265 11.6893 4.03515 11.9909 4.26887C12.3045 4.02126 12.6424 3.80903 13.0025 3.63279Z" fill="url(#paint0_linear_668:180)"/>
<defs>
<linearGradient id="paint0_linear_668:180" x1="-3" y1="3" x2="17" y2="16.5" gradientUnits="userSpaceOnUse">
<stop stop-color="#FF72A8"/>
<stop offset="1" stop-color="#EA4C89"/>
</linearGradient>
</defs>
</svg>
