<svg width="36" height="36" viewBox="0 0 36 36" fill="none" xmlns="http://www.w3.org/2000/svg">
<g filter="url(#filter0_b_65:150)">
<rect width="36" height="36" rx="10" fill="#7041FF"/>
</g>
<path d="M24 28H12C9.8 28 8 26.2 8 24V14C8 11.8 9.8 10 12 10H24C26.2 10 28 11.8 28 14V24C28 26.2 26.2 28 24 28Z" stroke="white" stroke-width="2" stroke-miterlimit="10" stroke-linecap="round" stroke-linejoin="round"/>
<path d="M23 8V12" stroke="white" stroke-width="2" stroke-miterlimit="10" stroke-linecap="round" stroke-linejoin="round"/>
<path d="M13 8V12" stroke="white" stroke-width="2" stroke-miterlimit="10" stroke-linecap="round" stroke-linejoin="round"/>
<path d="M13 18C13.5523 18 14 17.5523 14 17C14 16.4477 13.5523 16 13 16C12.4477 16 12 16.4477 12 17C12 17.5523 12.4477 18 13 18Z" fill="white"/>
<path d="M23 18C23.5523 18 24 17.5523 24 17C24 16.4477 23.5523 16 23 16C22.4477 16 22 16.4477 22 17C22 17.5523 22.4477 18 23 18Z" fill="white"/>
<path d="M18 18C18.5523 18 19 17.5523 19 17C19 16.4477 18.5523 16 18 16C17.4477 16 17 16.4477 17 17C17 17.5523 17.4477 18 18 18Z" fill="white"/>
<path d="M13 23C13.5523 23 14 22.5523 14 22C14 21.4477 13.5523 21 13 21C12.4477 21 12 21.4477 12 22C12 22.5523 12.4477 23 13 23Z" fill="white"/>
<path d="M23 23C23.5523 23 24 22.5523 24 22C24 21.4477 23.5523 21 23 21C22.4477 21 22 21.4477 22 22C22 22.5523 22.4477 23 23 23Z" fill="white"/>
<path d="M18 23C18.5523 23 19 22.5523 19 22C19 21.4477 18.5523 21 18 21C17.4477 21 17 21.4477 17 22C17 22.5523 17.4477 23 18 23Z" fill="white"/>
<defs>
<filter id="filter0_b_65:150" x="-30" y="-30" width="96" height="96" filterUnits="userSpaceOnUse" color-interpolation-filters="sRGB">
<feFlood flood-opacity="0" result="BackgroundImageFix"/>
<feGaussianBlur in="BackgroundImage" stdDeviation="15"/>
<feComposite in2="SourceAlpha" operator="in" result="effect1_backgroundBlur_65:150"/>
<feBlend mode="normal" in="SourceGraphic" in2="effect1_backgroundBlur_65:150" result="shape"/>
</filter>
</defs>
</svg>
