<svg width="36" height="36" viewBox="0 0 36 36" fill="none" xmlns="http://www.w3.org/2000/svg">
<rect width="36" height="36" rx="8" fill="#7041FF"/>
<path d="M22.8 9.50001C19.9 7.60001 16.1 7.60001 13.2 9.50001C8.5 12.7 8.00001 19.1 11.8 22.9L16.4 27.4C17.2 28.2 18.6 28.2 19.4 27.4L24 22.9C28 19.1 27.5 12.6 22.8 9.50001ZM18 19.7C16.3 19.7 15 18.4 15 16.7C15 15 16.3 13.7 18 13.7C19.7 13.7 21 15 21 16.7C21 18.4 19.7 19.7 18 19.7Z" stroke="white" stroke-width="2" stroke-miterlimit="10" stroke-linecap="round" stroke-linejoin="round"/>
</svg>
