<svg width="20" height="20" viewBox="0 0 20 20" fill="none" xmlns="http://www.w3.org/2000/svg">
<path fill-rule="evenodd" clip-rule="evenodd" d="M10 1.66667C7.69881 1.66667 5.83333 3.53215 5.83333 5.83333C5.83333 8.13452 7.69881 10 10 10C12.3012 10 14.1667 8.13452 14.1667 5.83333C14.1667 3.53215 12.3012 1.66667 10 1.66667ZM4.16667 5.83333C4.16667 2.61167 6.77834 0 10 0C13.2217 0 15.8333 2.61167 15.8333 5.83333C15.8333 9.05499 13.2217 11.6667 10 11.6667C6.77834 11.6667 4.16667 9.05499 4.16667 5.83333Z" fill="#6A7283"/>
<path fill-rule="evenodd" clip-rule="evenodd" d="M6.1984 10.6878C7.40566 10.2332 8.69723 10 10 10C11.3028 10 12.5943 10.2332 13.8016 10.6878C15.0089 11.1424 16.1107 11.8105 17.0424 12.6575C17.9742 13.5046 18.718 14.5146 19.2272 15.6321C19.7365 16.7499 20 17.9512 20 19.1667C20 19.6269 19.6269 20 19.1667 20C18.7064 20 18.3333 19.6269 18.3333 19.1667C18.3333 18.1934 18.1226 17.2274 17.7106 16.3232C17.2984 15.4186 16.6919 14.5913 15.9213 13.8907C15.1505 13.19 14.2313 12.6305 13.2143 12.2475C12.1972 11.8646 11.1048 11.6667 10 11.6667C8.8952 11.6667 7.80278 11.8646 6.78574 12.2475C5.76874 12.6305 4.84951 13.19 4.07875 13.8907C3.30814 14.5913 2.70158 15.4186 2.28943 16.3232C1.87741 17.2274 1.66667 18.1934 1.66667 19.1667C1.66667 19.6269 1.29357 20 0.833333 20C0.373096 20 0 19.6269 0 19.1667C0 17.9512 0.263458 16.7499 0.772777 15.6321C1.28197 14.5146 2.02583 13.5046 2.95763 12.6575C3.88927 11.8105 4.99109 11.1424 6.1984 10.6878Z" fill="#6A7283"/>
</svg>
